<svg width="40" height="41" viewBox="0 0 40 41" fill="none" xmlns="http://www.w3.org/2000/svg">
<path d="M24.913 31.6283C30.7836 30.9826 36.3182 27.8851 39.3655 22.7151C37.9225 35.5024 23.8016 43.5848 12.2755 38.6225C11.2134 38.1664 10.2992 37.4079 9.67176 36.4326C7.08151 32.4049 6.23004 27.2801 7.45347 22.6293C10.949 28.6031 18.0565 32.265 24.913 31.6283Z" fill="#F3B01C"/>
<path d="M7.23915 18.8771C4.85952 24.3226 4.75645 30.6982 7.67384 35.9449C-2.59305 28.296 -2.48102 11.9281 7.54836 4.35598C8.47602 3.65611 9.57844 3.2407 10.7346 3.17749C15.4894 2.92915 20.3204 4.74881 23.7083 8.13979C16.8249 8.20752 10.1207 12.5738 7.23915 18.8771Z" fill="#8D2676"/>
<path d="M27.0281 9.81529C23.555 5.02006 18.1191 1.7555 12.1633 1.65617C23.676 -3.51835 37.8373 4.87105 39.3789 17.2745C39.5223 18.4259 39.334 19.5999 38.8187 20.6384C36.6676 24.9641 32.6792 28.3189 28.0185 29.5606C31.4333 23.2889 31.0121 15.6265 27.0281 9.81529Z" fill="#EE342F"/>
</svg>
